<?xml version="1.0" encoding="UTF-8"?>
<!-- Generated by Pixelmator Pro 3.4.3 -->
<svg width="512" height="291" viewBox="0 0 512 291" xmlns="http://www.w3.org/2000/svg">
    <g id="Group">
        <path id="Path" fill="#b4c881" stroke="none" d="M 160.821091 399.70163 L 109.827194 259.637268 L 171.631073 136.909378 L 153.971039 122.810776 L 66.71759 255.5112 L 140.455841 408.441559 Z"/>
        <path id="path1" fill="#b4c881" stroke="none" d="M 207.493134 264.164215 L 270.129425 373.836121 L 247.170761 390.176514 L 155.502274 259.972992 L 250.219147 147.645905 L 267.869873 163.014343 Z"/>
        <path id="path2" fill="#b4c881" stroke="none" d="M 476.586578 76.923279 L 405.536499 76.401947 L 366.671051 12.621216 L 383.257996 0.043823 L 418.419678 49.828339 L 481.810669 56.643036 Z"/>
        <path id="path3" fill="#b4c881" stroke="none" d="M 463.433533 140.322144 L 377.149109 140.958939 L 326.948761 65.665848 L 342.313568 46.729919 L 392.607056 109.324585 L 467.379578 121.302429 Z"/>
        <path id="path4" fill="#b4c881" stroke="none" d="M 435.06488 202.339401 L 339.833954 211.799927 L 283.31781 132.650772 L 299.979309 109.914627 L 356.597931 175.09552 L 440.344879 174.440094 Z"/>
        <path id="path5" fill="#b4c881" stroke="none" d="M 496.759186 267.558685 L 562.072754 358.201599 L 590.087769 344.438141 L 534.812439 269.107819 L 592.465271 193.336182 L 567.202087 177.911896 Z"/>
        <path id="path6" fill="#d58b6d" stroke="none" d="M -48.499657 209.682495 L -51.000301 311.770172 L 311.279236 299.21402 L 444.043152 535.121704 L 472.076782 518.818542 L 388.700958 295.972382 L 694.507507 293.136597 L 693.592773 244.87326 L 361.198395 239.894501 L 449.066864 23.38446 L 418.747192 5.383209 L 290.176239 235.563614 Z"/>
    </g>
    <g id="napping">
        <path id="path7" fill="#f78c44" stroke="none" d="M 320.694183 205.694946 C 320.06485 250.875427 269.837494 255.196838 239.743042 254.777634 C 239.743042 254.777634 226.300858 254.590393 213.292267 248.484375 C 211.846802 247.811508 210.555298 246.88974 209.566833 245.821548 L 209.516678 245.820862 C 204.638824 246.656693 199.958099 247.746338 195.72879 248.842255 C 182.888992 252.228348 169.622971 253.800919 156.331253 253.615768 L 139.428192 253.380325 C 125.584747 253.1875 114.474648 244.04509 114.629189 232.950775 C 114.632683 232.699783 114.635483 232.498978 114.689133 232.248672 C 149.563416 228.064896 180.305832 199.973663 180.812805 163.578278 C 176.590683 160.557068 172.5215 150.157059 164.999847 139.106445 C 168.251373 132.574203 170.505341 125.626373 171.709503 118.412857 C 182.705353 114.147537 201.845581 108.639954 226.723663 108.986481 C 268.504791 109.568466 286.952332 135.784134 293.154938 165.896301 C 299.88562 168.902222 321.047302 180.343689 320.694183 205.694946 Z"/>
        <path id="path8" fill="#e5772c" stroke="none" d="M 208.310135 246.054428 C 203.884415 246.846359 199.606339 247.841187 195.729523 248.841599 C 182.88974 252.227692 169.623718 253.800262 156.332001 253.615112 L 139.42894 253.379669 C 125.585487 253.186829 114.475395 244.044434 114.629929 232.950119 C 114.633423 232.699127 114.636223 232.498322 114.68988 232.248016 C 118.157036 231.844421 121.577522 231.189117 124.900505 230.331619 C 126.114899 240.390594 136.639893 248.319794 149.53035 248.499344 L 166.433395 248.734787 C 179.725128 248.919937 192.99115 247.347366 205.830933 243.961273 C 206.888443 243.674744 207.678391 244.589539 208.310135 246.054428 Z"/>
        <path id="path9" fill="#f78c44" stroke="none" d="M 94.42617 231.964661 C 93.049171 240.782471 82.269142 247.56134 69.278366 247.380386 C 55.434921 247.187561 44.309441 239.149567 44.444397 229.460876 C 44.530407 223.286209 49.170952 217.87793 56.136028 214.861908 C 66.947983 223.799316 80.30835 229.860001 94.42617 231.964661 Z"/>
        <path id="path10" fill="#e5772c" stroke="none" d="M 88.424194 241.471176 C 83.807434 245.172638 76.902298 247.486542 69.278374 247.380341 C 55.434921 247.187515 44.309441 239.149536 44.444397 229.460831 C 44.530407 223.286163 49.170952 217.877899 56.136028 214.861877 C 56.681465 215.321365 57.227608 215.730652 57.773743 216.139954 C 55.782639 218.622726 54.589161 221.468079 54.545807 224.580505 C 54.410851 234.269226 65.536331 242.30719 79.379784 242.500031 C 82.589859 242.544739 85.604897 242.185043 88.424194 241.471176 Z"/>
        <g id="g1">
            <path id="path11" fill="#f78c44" stroke="none" d="M 180.812698 163.576935 C 180.25679 203.486359 143.369293 233.349762 104.597603 232.809692 C 65.825912 232.269638 29.784515 201.390381 30.340424 161.480957 C 34.645061 158.578522 39.002331 148.295883 46.828857 137.459061 C 54.246429 127.168854 64.680443 116.418579 81.059921 111.023163 C 88.268089 108.562851 96.615204 107.172821 106.345741 107.308365 C 116.076286 107.443893 124.381439 109.065887 131.518295 111.726013 C 147.741135 117.575546 157.871674 128.612289 164.999756 139.105103 C 172.521408 150.155716 176.590576 160.55571 180.812698 163.576935 Z"/>
            <path id="path12" fill="#e5772c" stroke="none" d="M 112.126816 232.512482 C 109.615448 232.728561 107.105476 232.844223 104.597603 232.809296 C 65.82592 232.269226 29.784521 201.389984 30.340429 161.48056 C 34.645065 158.57811 39.002338 148.295486 46.828865 137.458649 C 54.246433 127.168457 64.68045 116.418167 81.059929 111.022766 C 88.268097 108.562454 96.615204 107.172409 106.345749 107.307953 C 108.953941 107.344284 111.460411 107.479614 113.865166 107.713943 C 107.236 108.224136 101.399559 109.448318 96.107147 111.232361 C 79.727676 116.627762 69.293663 127.378052 61.876091 137.668259 C 54.049564 148.505081 49.692295 158.787704 45.387657 161.690155 C 44.868111 198.989151 76.314606 228.398514 112.126816 232.512482 Z"/>
            <path id="path13" fill="#f78c44" stroke="none" d="M 81.059273 111.022614 C 64.679794 116.418015 54.245781 127.168304 46.828209 137.458496 C 40.691578 124.217941 38.541157 109.325745 40.852654 94.646332 L 41.35022 91.339386 L 46.704479 92.317749 C 59.915272 94.711029 71.963867 101.305771 81.059273 111.022614 Z"/>
            <path id="path14" fill="#e5772c" stroke="none" d="M 53.566467 129.116867 C 51.070293 131.843689 48.823505 134.674377 46.828213 137.458344 C 40.691582 124.217773 38.541161 109.325577 40.852654 94.646164 L 41.350224 91.339218 L 46.704479 92.317596 C 48.205708 92.589554 49.656078 92.911026 51.105747 93.282684 L 50.88414 94.785904 C 49.066719 106.409363 50.006557 118.171661 53.566467 129.116867 Z"/>
            <path id="path15" fill="#f78c44" stroke="none" d="M 164.999084 139.105637 C 157.871002 128.612823 147.740479 117.576096 131.517624 111.726547 C 140.880157 102.26683 153.107758 96.010239 166.380081 93.98584 L 171.759506 93.156998 L 172.16478 96.476517 C 174.066498 111.214615 171.502136 126.041138 164.999084 139.105637 Z"/>
            <path id="path16" fill="#e5772c" stroke="none" d="M 168.527267 130.719452 C 167.534424 133.567596 166.341644 136.362793 164.999084 139.105637 C 157.871002 128.612823 147.740479 117.57608 131.517624 111.726547 C 140.880157 102.266815 153.107758 96.010223 166.380081 93.98584 L 171.759506 93.156982 L 171.984421 95.017914 C 166.04628 96.34108 160.29686 98.520447 155.087997 101.510712 C 148.615387 105.186325 148.637207 114.425323 154.850937 118.528687 C 160.26915 122.118881 164.725281 126.348404 168.527267 130.719452 Z"/>
            <g id="g2">
                <path id="path17" fill="#504254" stroke="none" d="M 19.470318 221.5811 C 18.166225 221.562927 16.818968 221.042068 15.88066 219.974579 C 14.002648 217.940002 14.096859 214.778076 16.129728 212.898392 C 16.587439 212.452881 27.463076 202.411682 38.958405 198.30394 C 49.697876 194.436707 60.647392 197.099731 61.097408 197.206421 C 63.796822 197.896759 65.414253 200.630646 64.725151 203.282196 C 64.035339 205.983948 61.353924 207.603516 58.654514 206.913208 C 58.45388 206.9104 50.103466 204.936295 42.339363 207.690125 C 32.809963 211.122345 23.052473 220.124695 22.95076 220.223694 C 21.985182 221.114044 20.724253 221.598572 19.470318 221.5811 Z"/>
                <path id="path18" fill="#504254" stroke="none" d="M 9.788188 196.341034 C 8.233308 196.319366 6.688917 195.544708 5.754806 194.176025 C 4.181234 191.894653 4.726163 188.789185 7.006322 187.164017 C 7.512791 186.819611 19.466721 178.600983 35.159191 175.706543 C 42.351978 174.350616 59.024334 176.741913 60.877361 176.968567 C 63.631126 177.358398 65.502144 179.894958 65.112579 182.651093 C 64.723022 185.407227 62.18858 187.279938 59.434814 186.890106 C 52.976395 185.946564 41.203384 184.778381 36.978973 185.522888 C 23.348553 188.044388 12.813018 195.278534 12.711304 195.377533 C 11.799379 196.017578 10.792036 196.30481 9.788887 196.290833 Z"/>
                <path id="path19" fill="#504254" stroke="none" d="M 190.005539 223.958099 C 188.751602 223.940628 187.503967 223.471344 186.564255 222.504272 C 186.465347 222.402466 176.962372 213.131836 167.532272 209.435547 C 159.848587 206.416321 151.346115 208.15567 151.245087 208.204483 C 148.527512 208.819336 145.842773 207.074799 145.277954 204.405792 C 144.663666 201.685883 146.406769 198.99881 149.073517 198.433426 C 149.526321 198.33931 160.545761 195.9823 171.173355 200.147156 C 182.549103 204.623688 193.140839 214.963928 193.58667 215.371796 C 195.566406 217.307373 195.572495 220.470703 193.63855 222.452179 C 192.620712 223.492432 191.309616 223.976257 190.005539 223.958099 Z"/>
                <path id="path20" fill="#504254" stroke="none" d="M 200.386383 198.99762 C 199.383224 198.983643 198.384262 198.668457 197.490524 198.003296 C 197.391617 197.901489 186.961349 190.375275 173.50676 187.476501 C 169.30542 186.564423 157.503738 187.454437 151.021545 188.217743 C 148.258698 188.480499 145.776703 186.588165 145.46405 183.822235 C 145.151413 181.056335 147.092361 178.572845 149.855911 178.259857 C 151.715225 178.034698 168.447021 176.158936 175.599258 177.714661 C 191.255173 181.045776 202.925385 189.593445 203.422089 189.951828 C 205.656769 191.589691 206.115005 194.709122 204.4785 196.945801 C 203.456467 198.287216 201.941269 199.019272 200.336227 198.996918 Z"/>
                <path id="path21" fill="#504254" stroke="none" d="M 115.118828 197.809052 C 112.360176 197.77063 110.134552 195.480164 110.173012 192.719147 L 110.192589 191.313538 C 113.176353 189.597717 115.276863 186.463745 115.328606 182.748901 C 115.37056 179.736877 113.987823 178.161087 112.79454 177.391296 C 110.210121 175.648163 107.586563 176.716248 106.324936 177.250977 C 105.971733 177.396698 105.467361 177.590515 105.416504 177.639999 C 105.215874 177.637207 104.717804 177.379211 104.36879 177.223724 C 103.122543 176.654053 100.529747 175.513306 97.897789 177.183807 C 96.682823 177.970245 95.256737 179.506897 95.215477 182.468735 C 95.163734 186.183578 97.17543 189.425049 100.110947 191.173096 L 100.09137 192.578705 C 100.05291 195.339722 97.764366 197.567322 95.005699 197.5289 C 92.247047 197.490479 89.958488 199.718048 89.920029 202.47908 C 89.881577 205.240112 92.107193 207.530579 94.865852 207.569 C 98.727974 207.622803 102.259964 206.16568 104.951874 203.793091 C 107.57666 206.239746 111.066696 207.794678 114.928818 207.848465 C 117.687485 207.886887 119.976028 205.659302 120.014488 202.898285 C 120.052948 200.137253 117.827332 197.846786 115.068672 197.80835 Z"/>
            </g>
            <path id="path22" fill="#e5772c" stroke="none" d="M 111.358788 107.528809 L 111.081184 127.458435 C 111.042725 130.219452 108.754166 132.447037 105.995514 132.408615 C 103.236862 132.370193 101.011238 130.079727 101.049698 127.318695 L 101.327301 107.389084 C 102.933739 107.31105 104.639793 107.284592 106.345146 107.30835 C 108.050499 107.332108 109.75515 107.406067 111.358788 107.528809 Z"/>
            <path id="path23" fill="#e5772c" stroke="none" d="M 131.367889 111.67395 L 131.21405 122.718079 C 131.175598 125.479111 128.887039 127.706696 126.128387 127.668274 C 123.369728 127.629837 121.144112 125.339371 121.182571 122.578354 L 121.373466 108.873596 C 124.925545 109.575821 128.273514 110.526245 131.367889 111.67395 Z"/>
            <path id="path24" fill="#e5772c" stroke="none" d="M 91.279015 108.453934 L 91.08812 122.158676 C 91.04966 124.919693 88.761108 127.147293 86.002449 127.108856 C 83.24379 127.070435 81.018173 124.779968 81.056633 122.018936 L 81.210472 110.974823 C 84.335617 109.913742 87.708755 109.056931 91.279015 108.453934 Z"/>
        </g>
        <path id="path25" fill="#504254" stroke="none" d="M 130.51532 172.918671 C 122.239357 172.803406 115.5625 165.932022 115.677879 157.648926 C 115.716339 154.887894 118.00489 152.660309 120.763542 152.69873 C 123.522202 152.737167 125.747818 155.027634 125.709358 157.788651 C 125.670906 160.549683 127.896523 162.840149 130.655182 162.878571 C 133.413834 162.917007 135.702393 160.689407 135.740845 157.928391 C 135.779312 155.167358 138.067856 152.939774 140.826508 152.978195 C 143.585175 153.016617 145.810791 155.307098 145.772339 158.068115 C 145.656952 166.351212 138.791306 173.033966 130.51532 172.918671 Z"/>
        <path id="path26" fill="#504254" stroke="none" d="M 80.35791 172.219421 C 72.08194 172.104156 65.405083 165.232758 65.520462 156.949661 C 65.558922 154.188644 67.847473 151.96106 70.606133 151.999481 C 73.364792 152.037903 75.590408 154.328369 75.551949 157.089401 C 75.513489 159.850418 77.739105 162.140884 80.497765 162.179321 C 83.256424 162.217743 85.544975 159.990158 85.583427 157.229126 C 85.621887 154.468109 87.910446 152.240509 90.669098 152.278946 C 93.42775 152.317368 95.653374 154.607834 95.614914 157.368866 C 95.499535 165.651947 88.633881 172.334702 80.35791 172.219421 Z"/>
        <g id="g3">
            <path id="path27" fill="#e5772c" stroke="none" d="M 305.786804 195.446228 C 305.748322 198.207245 303.459778 200.434845 300.701141 200.396408 C 297.942474 200.357986 295.716858 198.067505 295.75531 195.306488 C 295.895172 185.266388 295.074341 175.765213 293.24054 166.952866 C 293.145142 166.600067 293.150055 166.248657 293.154938 165.897263 C 295.597961 166.985703 299.882141 169.154205 304.397491 172.731812 C 305.450439 179.976761 305.896576 187.564728 305.786804 195.446228 Z"/>
            <path id="path28" fill="#e5772c" stroke="none" d="M 276.881927 224.917984 C 247.453629 234.299072 228.024704 231.718765 216.889954 227.948532 C 213.645111 226.798706 209.715332 227.999222 207.467865 230.880127 C 204.862289 234.258118 203.734848 239.564697 209.567413 245.821808 L 209.517273 245.821106 C 206.147629 246.42691 202.827438 247.083603 199.706497 247.843491 C 194.3797 241.29216 194.213013 231.649475 199.526596 224.744263 C 204.379639 218.485352 213.043076 215.995102 220.182724 218.454437 C 228.071945 221.125061 245.585785 224.331421 273.804718 215.335159 C 276.474915 214.518799 279.26416 215.963531 280.130646 218.586533 C 280.946259 221.259033 279.502686 224.050705 276.881927 224.917984 Z"/>
            <path id="path29" fill="#e5772c" stroke="none" d="M 166.465607 228.399979 C 160.872253 230.17984 155.847427 230.762589 151.634201 230.703903 C 146.417831 230.631241 142.369064 229.570633 139.822922 228.68161 C 138.525116 228.211639 137.534561 227.294052 136.948761 226.131058 C 140.734344 224.476639 144.323486 222.518219 147.765656 220.306702 C 151.520462 220.861115 156.888016 220.885651 163.388397 218.817154 C 166.058609 218.000793 168.847855 219.445526 169.714325 222.068527 C 170.529938 224.741028 169.08638 227.5327 166.465607 228.399979 Z"/>
        </g>
        <path id="path30" fill="#e5772c" stroke="none" d="M 242.795105 273.448456 C 242.790909 273.749664 242.589569 273.797058 242.39035 273.693878 C 242.290741 273.642273 242.442596 273.543976 242.795105 273.448456 Z"/>
    </g>
</svg>
