<?xml version="1.0" encoding="UTF-8"?>
<!-- Generated by Pixelmator Pro 3.4.3 -->
<svg width="2048" height="1163" viewBox="0 0 2048 1163" xmlns="http://www.w3.org/2000/svg">
    <g id="Group">
        <path id="Path" fill="#b4c881" stroke="none" d="M 643.28772 1597.434082 L 439.308624 1037.656616 L 686.520996 547.168335 L 615.880554 490.821899 L 266.870117 1021.165466 L 561.826965 1632.363281 Z"/>
        <path id="path1" fill="#b4c881" stroke="none" d="M 829.972412 1055.748901 L 1080.520264 1494.061401 L 988.686096 1559.366211 L 622.00885 1038.99707 L 1000.873535 590.077148 L 1071.476807 651.498535 Z"/>
        <path id="path2" fill="#b4c881" stroke="none" d="M 1906.34729 307.430054 L 1622.146851 305.344788 L 1466.683594 50.440063 L 1533.031006 0.174072 L 1673.678955 199.142029 L 1927.243164 226.378906 Z"/>
        <path id="path3" fill="#b4c881" stroke="none" d="M 1853.735352 560.808044 L 1508.597656 563.350891 L 1307.794434 262.435974 L 1369.253052 186.75769 L 1570.428711 436.922546 L 1869.518921 484.794678 Z"/>
        <path id="path4" fill="#b4c881" stroke="none" d="M 1740.260498 808.664124 L 1359.337158 846.471313 L 1133.270508 530.145264 L 1199.915894 439.279175 L 1426.39209 699.780273 L 1761.379761 697.162964 Z"/>
        <path id="path5" fill="#b4c881" stroke="none" d="M 1987.036743 1069.314087 L 2248.293213 1431.575928 L 2360.353027 1376.570068 L 2139.249756 1075.506226 L 2369.859375 772.68158 L 2268.805908 711.036743 Z"/>
        <path id="path6" fill="#d58b6d" stroke="none" d="M -194 838 L -204 1246 L 1245.117676 1195.827637 L 1776.179321 2138.650879 L 1888.313354 2073.495117 L 1554.804565 1182.874146 L 2778.030273 1171.54834 L 2774.370361 978.660889 L 1444.792847 958.754578 L 1796.26123 93.460571 L 1674.982178 21.516724 L 1160.704224 941.444153 Z"/>
    </g>
    <g id="napping">
        <path id="path7" fill="#f78c44" stroke="none" d="M 1282.77771 822.077881 C 1280.262573 1002.644592 1079.353394 1019.912903 958.975647 1018.236145 C 958.975647 1018.236145 905.206909 1017.487183 853.172302 993.083496 C 847.390381 990.394226 842.224304 986.710205 838.270386 982.441162 L 838.069824 982.438354 C 818.558411 985.778564 799.835571 990.133179 782.918396 994.512878 C 731.559387 1008.045044 678.495361 1014.329224 625.328552 1013.588684 L 557.716309 1012.646912 C 502.342529 1011.87561 457.901733 975.336853 458.519348 930.997681 C 458.533325 929.994568 458.544495 929.192017 458.759094 928.191711 C 598.255981 911.472595 721.224243 799.205688 723.250366 653.749207 C 706.361755 641.6745 690.084595 600.110046 659.997437 555.94519 C 673.003174 529.838806 682.018738 502.071472 686.835022 473.242188 C 730.818237 456.196106 807.378845 434.185608 906.891174 435.571716 C 1074.015747 437.899658 1147.807007 542.673157 1172.618896 663.018677 C 1199.54187 675.03241 1284.188965 720.759888 1282.77771 822.077881 Z"/>
        <path id="path8" fill="#e5772c" stroke="none" d="M 833.240662 983.37439 C 815.537842 986.539185 798.425537 990.514893 782.918396 994.512878 C 731.559387 1008.045044 678.495361 1014.329224 625.328552 1013.588684 L 557.716309 1012.646912 C 502.342529 1011.87561 457.901733 975.336853 458.519348 930.997681 C 458.533325 929.994568 458.544495 929.192017 458.759094 928.191711 C 472.627716 926.578857 486.309601 923.960083 499.601501 920.533203 C 504.459564 960.734619 546.559875 992.424622 598.121704 993.142822 L 665.733887 994.084656 C 718.900757 994.825195 771.964783 988.541016 823.323792 975.00885 C 827.553772 973.863831 830.713623 977.519897 833.240662 983.37439 Z"/>
        <path id="path9" fill="#f78c44" stroke="none" d="M 377.704681 927.062683 C 372.197113 962.303589 329.077332 989.395264 277.114258 988.671448 C 221.740463 987.900146 177.238174 955.775269 177.777542 917.053772 C 178.121277 892.376343 196.683197 870.761963 224.54335 858.708618 C 267.791565 894.42804 321.233337 918.650635 377.704681 927.062683 Z"/>
        <path id="path10" fill="#e5772c" stroke="none" d="M 353.697235 965.055969 C 335.230377 979.848877 307.609985 989.096252 277.114258 988.671448 C 221.740463 987.900146 177.238174 955.775269 177.777542 917.053772 C 178.121277 892.376343 196.683197 870.761963 224.54335 858.708618 C 226.725113 860.545044 228.909698 862.180786 231.094269 863.816589 C 223.129974 873.739075 218.356201 885.110718 218.182938 897.549683 C 217.64357 936.27124 262.145844 968.396118 317.519653 969.167419 C 330.359955 969.346252 342.420074 967.908875 353.697235 965.055969 Z"/>
        <g id="g1">
            <path id="path11" fill="#f78c44" stroke="none" d="M 723.250366 653.749207 C 721.028625 813.249756 573.480103 932.598999 418.393402 930.438782 C 263.306671 928.278564 119.139656 804.865906 121.361389 645.365295 C 138.579788 633.765686 156.008377 592.670715 187.31395 549.361023 C 216.983734 508.235901 258.719238 465.272217 324.236877 443.7099 C 353.069458 433.877441 386.457794 428.322449 425.379974 428.864624 C 464.302124 429.406799 497.522827 435.889587 526.070313 446.521301 C 590.961975 469.900085 631.484619 514.009644 659.997437 555.94519 C 690.084595 600.110046 706.361755 641.6745 723.250366 653.749207 Z"/>
            <path id="path12" fill="#e5772c" stroke="none" d="M 448.510223 929.25293 C 438.464752 930.116394 428.424896 930.578491 418.393402 930.438782 C 263.306671 928.278564 119.139656 804.865906 121.361389 645.365295 C 138.579788 633.765686 156.008377 592.670715 187.31395 549.361023 C 216.983734 508.235901 258.719238 465.272217 324.236877 443.7099 C 353.069458 433.877441 386.457794 428.322449 425.379974 428.864624 C 435.812714 429.009949 445.838623 429.550964 455.457642 430.487549 C 428.94101 432.526306 405.595306 437.418518 384.425781 444.548279 C 318.908142 466.110596 277.172638 509.07428 247.502853 550.199402 C 216.197266 593.509094 198.768692 634.604126 181.550293 646.203735 C 179.473877 795.271545 305.26123 912.809448 448.510223 929.25293 Z"/>
            <path id="path13" fill="#f78c44" stroke="none" d="M 324.236877 443.7099 C 258.719238 465.272217 216.983734 508.235901 187.31395 549.361023 C 162.7668 496.44397 154.164413 436.92627 163.409683 378.259094 L 165.399796 365.042725 L 186.816864 368.953064 C 239.660141 378.518616 287.854797 404.875488 324.236877 443.7099 Z"/>
            <path id="path14" fill="#e5772c" stroke="none" d="M 214.266556 516.024109 C 204.281998 526.921875 195.294998 538.234802 187.31395 549.361023 C 162.7668 496.44397 154.164413 436.92627 163.409683 378.259094 L 165.399796 365.042725 L 186.816864 368.953064 C 192.821777 370.040039 198.623276 371.32489 204.421967 372.810364 L 203.535614 378.818054 C 196.266479 425.271912 200.026398 472.280701 214.266556 516.024109 Z"/>
            <path id="path15" fill="#f78c44" stroke="none" d="M 659.997437 555.94519 C 631.484619 514.009644 590.961975 469.900085 526.070313 446.521301 C 563.519958 408.715332 612.430054 383.71106 665.519226 375.621094 L 687.036926 372.308777 L 688.658142 385.575439 C 696.265747 444.477356 686.008972 503.732361 659.997437 555.94519 Z"/>
            <path id="path16" fill="#e5772c" stroke="none" d="M 674.109741 522.429443 C 670.138489 533.812195 665.367493 544.983276 659.997437 555.94519 C 631.484619 514.009644 590.961975 469.900085 526.070313 446.521301 C 563.519958 408.715332 612.430054 383.71106 665.519226 375.621094 L 687.036926 372.308777 L 687.936646 379.746094 C 664.184143 385.033936 641.186584 393.743591 620.351257 405.694153 C 594.46106 420.383667 594.548767 457.307922 619.40387 473.707642 C 641.076904 488.056335 658.901611 504.960083 674.109741 522.429443 Z"/>
            <g id="g2">
                <path id="path17" fill="#504254" stroke="none" d="M 77.881905 885.562012 C 72.665535 885.489319 67.276474 883.407593 63.523201 879.141235 C 56.011059 871.009888 56.387749 858.372986 64.519135 850.86084 C 66.349953 849.080322 109.852005 808.950562 155.833115 792.534241 C 198.790802 777.079102 242.588974 787.722595 244.389038 788.149048 C 255.186722 790.908081 261.656586 801.834351 258.900299 812.431396 C 256.141205 823.229065 245.415604 829.70166 234.617935 826.942627 C 233.815399 826.931519 200.413666 819.041382 169.357391 830.046936 C 131.23996 843.76355 92.210449 879.741577 91.803596 880.137207 C 87.94133 883.695435 82.897644 885.631836 77.881905 885.562012 Z"/>
                <path id="path18" fill="#504254" stroke="none" d="M 39.153282 784.688232 C 32.933765 784.601563 26.756165 781.505493 23.019655 776.035461 C 16.725264 766.917725 18.904827 754.506531 28.025385 748.011597 C 30.051243 746.635132 77.866547 713.789429 140.636276 702.222351 C 169.407349 696.803711 236.096863 706.361389 243.508987 707.267334 C 254.524063 708.825439 262.00827 718.963135 260.450134 729.978149 C 258.892029 740.993225 248.754349 748.477417 237.739273 746.919312 C 211.905548 743.148193 164.813477 738.478821 147.915878 741.454102 C 93.394325 751.530823 51.252544 780.442017 50.845699 780.837708 C 47.198032 783.39563 43.168671 784.543518 39.156078 784.487671 Z"/>
                <path id="path19" fill="#504254" stroke="none" d="M 760.022766 895.063721 C 755.007019 894.993896 750.016418 893.118286 746.257568 889.253296 C 745.861877 888.846436 707.849609 851.795288 670.129028 837.022339 C 639.394165 824.955444 605.384338 831.906494 604.980286 832.101563 C 594.109985 834.558716 583.370972 827.586426 581.111511 816.919556 C 578.654236 806.049194 585.626587 795.310303 596.293457 793.050781 C 598.104736 792.674683 642.182373 783.255188 684.692932 799.900879 C 730.196106 817.792114 772.563538 859.118042 774.346863 860.74823 C 782.265869 868.483948 782.290405 881.126465 774.554749 889.04541 C 770.483459 893.202759 765.239075 895.136353 760.022766 895.063721 Z"/>
                <path id="path20" fill="#504254" stroke="none" d="M 801.546021 795.307861 C 797.533386 795.251953 793.537537 793.992188 789.962524 791.333801 C 789.566956 790.926941 747.845459 760.847473 694.027039 749.261719 C 677.221619 745.616333 630.014954 749.172729 604.086243 752.223022 C 593.034851 753.27301 583.10675 745.710022 581.856079 734.655823 C 580.605347 723.601685 588.369019 713.676392 599.423218 712.425598 C 606.860474 711.525879 673.787537 704.030029 702.396545 710.247986 C 765.020386 723.561707 811.701599 757.723572 813.688416 759.155884 C 822.627258 765.701782 824.460327 778.168823 817.914429 787.107788 C 813.826355 792.468811 807.765564 795.394409 801.345398 795.305054 Z"/>
                <path id="path21" fill="#504254" stroke="none" d="M 460.475586 790.556946 C 449.440948 790.403259 440.538361 781.249146 440.692078 770.214478 L 440.770325 764.596924 C 452.705292 757.739746 461.107147 745.214722 461.313965 730.368042 C 461.481628 718.330322 455.950623 712.032471 451.177429 708.955933 C 440.839722 701.989258 430.34552 706.257813 425.299042 708.394897 C 423.88623 708.977173 421.868774 709.751709 421.665344 709.949585 C 420.862793 709.938354 418.870514 708.907288 417.474457 708.285889 C 412.489441 706.009033 402.118225 701.449829 391.590454 708.125977 C 386.730621 711.268921 381.026337 717.410278 380.86145 729.247437 C 380.654663 744.093994 388.70163 757.048889 400.443756 764.035156 L 400.365509 769.652832 C 400.211792 780.687378 391.057739 789.589966 380.023071 789.436279 C 368.988464 789.282593 359.834351 798.185181 359.680634 809.219849 C 359.526947 820.254395 368.429535 829.408569 379.464142 829.562256 C 394.912659 829.777466 409.040527 823.954163 419.808075 814.472046 C 430.307312 824.250366 444.267517 830.464905 459.716003 830.680054 C 470.750671 830.833801 479.904755 821.931213 480.058441 810.896606 C 480.212158 799.861938 471.309601 790.707886 460.274933 790.554199 Z"/>
            </g>
            <path id="path22" fill="#e5772c" stroke="none" d="M 445.43454 429.745972 L 444.325073 509.395935 C 444.171387 520.430603 435.017273 529.333191 423.982666 529.179443 C 412.948029 529.025757 404.045441 519.871643 404.199158 508.837036 L 405.308624 429.187012 C 411.734344 428.875244 418.558563 428.769592 425.379974 428.864624 C 432.201385 428.959656 439.019989 429.25531 445.43454 429.745972 Z"/>
            <path id="path23" fill="#e5772c" stroke="none" d="M 525.471252 446.312317 L 524.856445 490.450867 C 524.702698 501.485474 515.548584 510.388062 504.513977 510.234375 C 493.47937 510.080627 484.576782 500.926514 484.730469 489.891907 L 485.493408 435.120056 C 499.701782 437.926636 513.093628 441.72522 525.471252 446.312317 Z"/>
            <path id="path24" fill="#e5772c" stroke="none" d="M 365.115631 433.443237 L 364.352692 488.215149 C 364.198975 499.249756 355.044861 508.152344 344.010254 507.998657 C 332.975616 507.844971 324.073059 498.690857 324.226746 487.656189 L 324.841583 443.5177 C 337.342102 439.277161 350.834595 435.853027 365.115631 433.443237 Z"/>
        </g>
        <path id="path25" fill="#504254" stroke="none" d="M 522.061768 691.080505 C 488.957916 690.619385 462.250153 663.157104 462.711273 630.053223 C 462.86499 619.018616 472.019104 610.116028 483.053711 610.269714 C 494.088318 610.423401 502.990906 619.577515 502.837219 630.612122 C 502.683502 641.64679 511.58609 650.800842 522.620728 650.95459 C 533.655334 651.108276 542.809448 642.205688 542.963135 631.171082 C 543.116821 620.136475 552.270935 611.233887 563.305542 611.387573 C 574.34021 611.54126 583.242798 620.695374 583.08905 631.72998 C 582.627991 664.833923 555.165649 691.541626 522.061768 691.080505 Z"/>
        <path id="path26" fill="#504254" stroke="none" d="M 321.432129 688.285889 C 288.328247 687.824768 261.620514 660.362549 262.081604 627.258606 C 262.235321 616.223999 271.389404 607.321411 282.424042 607.475098 C 293.458679 607.628784 302.361237 616.782898 302.20755 627.817505 C 302.053833 638.852112 310.956421 648.006226 321.991058 648.159973 C 333.025696 648.31366 342.179779 639.411072 342.333466 628.376465 C 342.487183 617.341858 351.641296 608.439209 362.675903 608.592957 C 373.71051 608.746643 382.613129 617.900757 382.459412 628.935364 C 381.998291 662.039307 354.536011 688.747009 321.432129 688.285889 Z"/>
        <g id="g3">
            <path id="path27" fill="#e5772c" stroke="none" d="M 1223.147705 781.113525 C 1222.994019 792.148193 1213.839966 801.050781 1202.805298 800.897095 C 1191.770752 800.743408 1182.868164 791.589233 1183.021851 780.554688 C 1183.580811 740.428711 1180.296997 702.456604 1172.961426 667.237427 C 1172.579834 665.827454 1172.599365 664.423035 1172.618896 663.018677 C 1182.391113 667.368774 1199.527832 676.035522 1217.589478 690.333923 C 1221.801514 719.288818 1223.586548 749.614746 1223.147705 781.113525 Z"/>
            <path id="path28" fill="#e5772c" stroke="none" d="M 1107.527344 898.900879 C 989.814636 936.391602 912.098816 926.078247 867.559631 911.009766 C 854.580261 906.414307 838.861206 911.212036 829.87146 922.725647 C 819.449341 936.22583 814.939819 957.43396 838.270386 982.441162 L 838.069824 982.438354 C 824.591248 984.859314 811.310547 987.483643 798.826843 990.520508 C 777.519287 964.337402 776.852112 925.799805 798.106079 898.202881 C 817.517944 873.189026 852.171631 863.236938 880.730347 873.066162 C 912.287292 883.739868 982.342834 896.555054 1095.218018 860.602356 C 1105.898804 857.339844 1117.055908 863.113892 1120.521851 873.596924 C 1123.784424 884.277832 1118.010376 895.434875 1107.527344 898.900879 Z"/>
            <path id="path29" fill="#e5772c" stroke="none" d="M 665.862549 912.815674 C 643.489258 919.928711 623.389954 922.257507 606.537109 922.022705 C 585.671631 921.732117 569.476501 917.493103 559.291931 913.939941 C 554.100708 912.061584 550.138367 908.394348 547.795105 903.746338 C 562.937378 897.134521 577.293823 889.307739 591.062439 880.469421 C 606.081665 882.685364 627.55188 882.783691 653.553284 874.517151 C 664.234131 871.254639 675.391174 877.028687 678.857178 887.511719 C 682.119751 898.192627 676.345642 909.34967 665.862549 912.815674 Z"/>
        </g>
        <path id="path30" fill="#e5772c" stroke="none" d="M 971.18042 1092.854126 C 971.163635 1094.057983 970.358276 1094.247437 969.561401 1093.834961 C 969.162964 1093.628784 969.770386 1093.23584 971.18042 1092.854126 Z"/>
    </g>
</svg>
